<svg width="42" height="42" viewBox="0 0 42 42" fill="none" xmlns="http://www.w3.org/2000/svg">
<path d="M12.3189 2.93457H30.361C35.3431 2.93457 39.382 6.97343 39.382 11.9556V29.9977C39.382 34.9799 35.3431 39.0187 30.361 39.0187H12.3189C7.33671 39.0187 3.29785 34.9799 3.29785 29.9977L3.29785 11.9556C3.29785 6.97343 7.33671 2.93457 12.3189 2.93457Z" stroke="black" stroke-width="5" stroke-linecap="round" stroke-linejoin="round"/>
<path d="M28.556 19.8402C29.0127 22.9199 27.4428 25.9454 24.6618 27.3451C21.8808 28.7449 18.5157 28.2034 16.3142 26.0019C14.1126 23.8004 13.5711 20.4352 14.9709 17.6542C16.3707 14.8732 19.3961 13.3034 22.4758 13.76C25.6205 14.2264 28.0897 16.6955 28.556 19.8402Z" stroke="black" stroke-width="5" stroke-linecap="round" stroke-linejoin="round"/>
</svg>
