<svg width="38" height="38" viewBox="0 0 38 38" fill="none" xmlns="http://www.w3.org/2000/svg">
<path d="M33.8289 0.0322266H4.05947C1.81748 0.0322266 -5.73542e-07 1.84971 0 4.09169V33.8611C0 36.1031 1.81748 37.9206 4.05947 37.9206H15.667V25.0394H10.339V18.9764H15.667V14.3554C15.667 9.09921 18.7962 6.19585 23.5889 6.19585C25.8842 6.19585 28.2843 6.60518 28.2843 6.60518V11.7641H25.6398C23.0341 11.7641 22.2214 13.3811 22.2214 15.0396V18.9764H28.0382L27.1079 25.0394H22.2214V37.9206H33.8289C36.0709 37.9206 37.8883 36.1031 37.8883 33.8611L37.8884 4.09169C37.8883 1.84971 36.0709 0.0322266 33.8289 0.0322266Z" fill="black"/>
</svg>
