<svg width="39" height="38" viewBox="0 0 39 38" fill="none" xmlns="http://www.w3.org/2000/svg">
<path d="M34.659 0.0322266H4.88954C2.64838 0.0322266 0.830078 1.85053 0.830078 4.09169V33.8611C0.830078 36.1023 2.64838 37.9206 4.88954 37.9206H34.659C36.9001 37.9206 38.7184 36.1023 38.7184 33.8611V4.09169C38.7184 1.85053 36.9001 0.0322266 34.659 0.0322266ZM30.5234 13.4623C30.5403 13.6991 30.5403 13.9444 30.5403 14.1812C30.5403 21.5136 24.9585 29.9623 14.7591 29.9623C11.613 29.9623 8.69529 29.049 6.2427 27.4759C6.69093 27.5267 7.12225 27.5436 7.57894 27.5436C10.1753 27.5436 12.5602 26.664 14.4631 25.1756C12.0274 25.1248 9.98079 23.5264 9.27884 21.3275C10.133 21.4544 10.9026 21.4544 11.7822 21.226C9.24501 20.7101 7.34214 18.4774 7.34214 15.7796V15.7119C8.07792 16.1263 8.94055 16.38 9.84548 16.4139C8.30022 15.386 7.37293 13.6521 7.37597 11.7962C7.37597 10.7644 7.6466 9.81723 8.12866 8.99688C10.8603 12.3629 14.9621 14.5617 19.5628 14.7985C18.7763 11.0351 21.5926 7.98201 24.9755 7.98201C26.5739 7.98201 28.0116 8.65013 29.0265 9.73266C30.2781 9.49586 31.4791 9.03071 32.5447 8.39642C32.1303 9.68192 31.2592 10.7644 30.109 11.4495C31.2253 11.3311 32.3079 11.0182 33.3058 10.5868C32.5531 11.6947 31.6059 12.6758 30.5234 13.4623Z" fill="black"/>
</svg>
