<svg width="32" height="38" viewBox="0 0 32 38" fill="none" xmlns="http://www.w3.org/2000/svg">
<path d="M20.3343 26.1818V30.5507C20.3343 31.4756 20.0652 31.938 19.5268 31.938C19.2093 31.938 18.8987 31.7862 18.595 31.4825V25.2501C18.8987 24.9464 19.2093 24.7946 19.5268 24.7946C20.0652 24.7946 20.3343 25.257 20.3343 26.1818ZM27.3329 26.2025V27.155H25.4694V26.2025C25.4694 25.2639 25.7799 24.7946 26.4011 24.7946C27.0223 24.7946 27.3329 25.2639 27.3329 26.2025ZM7.3311 21.6887H9.54663V19.7423H3.08641V21.6887H5.26052V33.4703H7.3311V21.6887ZM13.2944 33.4703H15.1372V23.2416H13.2944V31.0684C12.8802 31.6481 12.4868 31.938 12.1142 31.938C11.8657 31.938 11.7207 31.7931 11.6794 31.5032C11.6655 31.4618 11.6586 31.2202 11.6586 30.7785V23.2416H9.81581V31.3376C9.81581 32.014 9.87103 32.5178 9.98145 32.8491C10.1471 33.3598 10.5474 33.6152 11.1824 33.6152C11.845 33.6152 12.549 33.1942 13.2944 32.3522L13.2944 33.4703ZM22.1771 30.4058V26.3268C22.1771 25.3191 22.115 24.6358 21.9908 24.2769C21.7561 23.5039 21.2661 23.1174 20.5207 23.1174C19.8305 23.1174 19.1886 23.4901 18.595 24.2355V19.7424H16.7522V33.4703H18.595V32.4764C19.2162 33.2356 19.8581 33.6152 20.5207 33.6152C21.2661 33.6152 21.7561 33.2356 21.9908 32.4764C22.115 32.1037 22.1771 31.4135 22.1771 30.4058ZM29.1757 30.1987V29.9295H27.2915C27.2915 30.6336 27.2777 31.0546 27.2501 31.1926C27.1534 31.6895 26.8774 31.938 26.4218 31.938C25.7869 31.938 25.4694 31.4618 25.4694 30.5093V28.7079H29.1757V26.5752C29.1757 25.4847 28.9893 24.6841 28.6166 24.1733C28.0783 23.4693 27.3467 23.1173 26.4219 23.1173C25.4832 23.1173 24.7447 23.4693 24.2063 24.1733C23.8198 24.6841 23.6265 25.4847 23.6265 26.5752V30.1573C23.6265 31.2478 23.8267 32.0484 24.227 32.5592C24.7654 33.2632 25.5108 33.6152 26.4632 33.6152C27.4571 33.6152 28.2025 33.2494 28.6994 32.5178C28.9479 32.145 29.0929 31.7723 29.1343 31.3996C29.1619 31.2754 29.1757 30.8751 29.1757 30.1987ZM16.5866 11.2944V6.94615C16.5866 5.99367 16.2898 5.51744 15.6963 5.51744C15.1028 5.51744 14.806 5.99367 14.8059 6.94615V11.2944C14.8059 12.2606 15.1027 12.7438 15.6963 12.7438C16.2898 12.7438 16.5866 12.2606 16.5866 11.2944ZM31.4741 26.8444C31.4741 30.0745 31.2946 32.4902 30.9357 34.0914C30.7425 34.9059 30.3422 35.5891 29.7348 36.1413C29.1274 36.6935 28.4234 37.0109 27.6228 37.0938C25.0829 37.3837 21.2523 37.5286 16.1311 37.5286C11.0098 37.5286 7.17925 37.3837 4.63934 37.0938C3.83871 37.0109 3.13128 36.6934 2.51705 36.1413C1.90281 35.5891 1.50594 34.9059 1.32643 34.0914C0.967535 32.5454 0.788086 30.1297 0.788086 26.8444C0.788086 23.6143 0.967535 21.1986 1.32643 19.5974C1.51969 18.783 1.92 18.0997 2.52737 17.5475C3.13475 16.9954 3.84564 16.671 4.66006 16.5744C7.18616 16.2983 11.0098 16.1602 16.1311 16.1602C21.2523 16.1602 25.0829 16.2983 27.6228 16.5744C28.4234 16.671 29.1308 16.9954 29.7451 17.5475C30.3594 18.0997 30.7562 18.783 30.9357 19.5974C31.2946 21.1434 31.4741 23.5591 31.4741 26.8444ZM10.8097 0.423828H12.9217L10.4163 8.68544V14.2967H8.34568V8.68544C8.15243 7.66395 7.73142 6.20073 7.08264 4.29581C6.57189 2.87401 6.12326 1.58335 5.73676 0.423828H7.93155L9.40165 5.86946L10.8097 0.423828ZM18.4709 7.31887V10.9424C18.4709 12.0605 18.2776 12.8749 17.8911 13.3857C17.3803 14.0897 16.6487 14.4417 15.6963 14.4417C14.7714 14.4417 14.0467 14.0897 13.5222 13.3857C13.1357 12.8611 12.9424 12.0467 12.9424 10.9424V7.31887C12.9424 6.21456 13.1357 5.40704 13.5222 4.89629C14.0467 4.19229 14.7714 3.84029 15.6963 3.84029C16.6488 3.84029 17.3804 4.19229 17.8911 4.89629C18.2776 5.40704 18.4709 6.21456 18.4709 7.31887ZM25.4072 3.96451V14.2967H23.523V13.1579C22.7914 14.0137 22.0805 14.4416 21.3903 14.4416C20.7553 14.4416 20.3481 14.1863 20.1687 13.6755C20.0583 13.3442 20.0031 12.8266 20.0031 12.1226V3.96451H21.8873V11.5635C21.8873 12.019 21.8942 12.2606 21.908 12.2882C21.9494 12.5919 22.0943 12.7437 22.3428 12.7437C22.7155 12.7437 23.1089 12.447 23.523 11.8534V3.96451H25.4072Z" fill="black"/>
</svg>
